<svg xmlns="http://www.w3.org/2000/svg" viewBox="0 0 1200 630" width="1200" height="630">
  <defs>
    <linearGradient id="bg" x1="0%" y1="0%" x2="100%" y2="100%">
      <stop offset="0%" style="stop-color:#0d0f1f"/>
      <stop offset="100%" style="stop-color:#1a1040"/>
    </linearGradient>
    <linearGradient id="accent1" x1="0%" y1="0%" x2="100%" y2="0%">
      <stop offset="0%" style="stop-color:#6366f1"/>
      <stop offset="100%" style="stop-color:#06b6d4"/>
    </linearGradient>
    <filter id="glow"><feGaussianBlur stdDeviation="4" result="coloredBlur"/><feMerge><feMergeNode in="coloredBlur"/><feMergeNode in="SourceGraphic"/></feMerge></filter>
    <filter id="glow2"><feGaussianBlur stdDeviation="12" result="coloredBlur"/><feMerge><feMergeNode in="coloredBlur"/><feMergeNode in="SourceGraphic"/></feMerge></filter>
  </defs>
  <rect width="1200" height="630" fill="url(#bg)"/>
  <g opacity="0.06">
    <line x1="0" y1="90" x2="1200" y2="90" stroke="#6366f1" stroke-width="1"/>
    <line x1="0" y1="180" x2="1200" y2="180" stroke="#6366f1" stroke-width="1"/>
    <line x1="0" y1="270" x2="1200" y2="270" stroke="#6366f1" stroke-width="1"/>
    <line x1="0" y1="360" x2="1200" y2="360" stroke="#6366f1" stroke-width="1"/>
    <line x1="0" y1="450" x2="1200" y2="450" stroke="#6366f1" stroke-width="1"/>
    <line x1="0" y1="540" x2="1200" y2="540" stroke="#6366f1" stroke-width="1"/>
    <line x1="150" y1="0" x2="150" y2="630" stroke="#6366f1" stroke-width="1"/>
    <line x1="300" y1="0" x2="300" y2="630" stroke="#6366f1" stroke-width="1"/>
    <line x1="450" y1="0" x2="450" y2="630" stroke="#6366f1" stroke-width="1"/>
    <line x1="600" y1="0" x2="600" y2="630" stroke="#6366f1" stroke-width="1"/>
    <line x1="750" y1="0" x2="750" y2="630" stroke="#6366f1" stroke-width="1"/>
    <line x1="900" y1="0" x2="900" y2="630" stroke="#6366f1" stroke-width="1"/>
    <line x1="1050" y1="0" x2="1050" y2="630" stroke="#6366f1" stroke-width="1"/>
  </g>
  <circle cx="200" cy="315" r="200" fill="#6366f1" opacity="0.08" filter="url(#glow2)"/>
  <circle cx="900" cy="200" r="150" fill="#06b6d4" opacity="0.07" filter="url(#glow2)"/>
  <rect x="120" y="100" width="480" height="430" rx="16" fill="#13162b" stroke="#6366f1" stroke-width="1.5" opacity="0.9"/>
  <rect x="120" y="100" width="480" height="60" rx="16" fill="#1e2247"/>
  <rect x="120" y="140" width="480" height="20" fill="#1e2247"/>
  <circle cx="158" cy="130" r="8" fill="#ef4444"/>
  <circle cx="182" cy="130" r="8" fill="#f59e0b"/>
  <circle cx="206" cy="130" r="8" fill="#22c55e"/>
  <rect x="150" y="190" width="380" height="14" rx="4" fill="#2a2f55"/>
  <rect x="150" y="216" width="320" height="14" rx="4" fill="#2a2f55"/>
  <rect x="150" y="242" width="360" height="14" rx="4" fill="#2a2f55"/>
  <rect x="150" y="268" width="290" height="14" rx="4" fill="#2a2f55"/>
  <rect x="150" y="300" width="380" height="14" rx="4" fill="#6366f1" opacity="0.4"/>
  <rect x="150" y="326" width="340" height="14" rx="4" fill="#6366f1" opacity="0.4"/>
  <rect x="150" y="352" width="310" height="14" rx="4" fill="#06b6d4" opacity="0.3"/>
  <rect x="120" y="330" width="480" height="2" fill="url(#accent1)" filter="url(#glow)" opacity="0.9"/>
  <rect x="150" y="378" width="380" height="14" rx="4" fill="#2a2f55" opacity="0.6"/>
  <rect x="150" y="404" width="250" height="14" rx="4" fill="#2a2f55" opacity="0.6"/>
  <rect x="150" y="430" width="340" height="14" rx="4" fill="#2a2f55" opacity="0.6"/>
  <rect x="150" y="456" width="200" height="14" rx="4" fill="#2a2f55" opacity="0.6"/>
  <rect x="446" y="294" width="88" height="26" rx="6" fill="#6366f1"/>
  <text x="490" y="311" text-anchor="middle" font-family="system-ui,sans-serif" font-size="11" font-weight="700" fill="white" letter-spacing="1">AI TEXT</text>
  <circle cx="800" cy="240" r="100" fill="none" stroke="url(#accent1)" stroke-width="8" filter="url(#glow)" opacity="0.9"/>
  <circle cx="800" cy="240" r="88" fill="#0d0f1f" opacity="0.6"/>
  <polyline points="720,240 736,220 748,255 760,210 772,245 784,230 796,250 808,215 820,248 832,232 844,242 856,225 870,240 880,240" fill="none" stroke="#06b6d4" stroke-width="3" stroke-linecap="round" stroke-linejoin="round"/>
  <line x1="870" y1="310" x2="930" y2="380" stroke="url(#accent1)" stroke-width="12" stroke-linecap="round" filter="url(#glow)"/>
  <rect x="680" y="380" width="400" height="190" rx="14" fill="#13162b" stroke="#2a2f55" stroke-width="1.5"/>
  <text x="710" y="414" font-family="system-ui,sans-serif" font-size="13" fill="#8b8fc0">Perplexity Score</text>
  <rect x="710" y="424" width="250" height="8" rx="4" fill="#2a2f55"/>
  <rect x="710" y="424" width="60" height="8" rx="4" fill="#ef4444"/>
  <text x="972" y="433" text-anchor="end" font-family="system-ui,sans-serif" font-size="12" fill="#ef4444" font-weight="700">Low</text>
  <text x="710" y="460" font-family="system-ui,sans-serif" font-size="13" fill="#8b8fc0">Burstiness</text>
  <rect x="710" y="470" width="250" height="8" rx="4" fill="#2a2f55"/>
  <rect x="710" y="470" width="55" height="8" rx="4" fill="#f59e0b"/>
  <text x="972" y="479" text-anchor="end" font-family="system-ui,sans-serif" font-size="12" fill="#f59e0b" font-weight="700">Low</text>
  <text x="710" y="506" font-family="system-ui,sans-serif" font-size="13" fill="#8b8fc0">Homogeneity</text>
  <rect x="710" y="516" width="250" height="8" rx="4" fill="#2a2f55"/>
  <rect x="710" y="516" width="210" height="8" rx="4" fill="#ef4444"/>
  <text x="972" y="525" text-anchor="end" font-family="system-ui,sans-serif" font-size="12" fill="#ef4444" font-weight="700">High</text>
  <rect x="838" y="540" width="140" height="22" rx="11" fill="#ef4444" opacity="0.9"/>
  <text x="908" y="555" text-anchor="middle" font-family="system-ui,sans-serif" font-size="11" font-weight="700" fill="white" letter-spacing="0.5">AI GENERATED</text>
  <text x="600" y="590" text-anchor="middle" font-family="system-ui,-apple-system,sans-serif" font-size="22" font-weight="700" fill="white" opacity="0.9">Detect AI Writing · TruthLens Pro</text>
  <rect x="0" y="0" width="1200" height="4" fill="url(#accent1)"/>
  <circle cx="640" cy="140" r="3" fill="#06b6d4" opacity="0.7"/>
  <circle cx="660" cy="170" r="2" fill="#6366f1" opacity="0.5"/>
  <circle cx="1100" cy="440" r="4" fill="#06b6d4" opacity="0.4"/>
  <circle cx="90" cy="550" r="3" fill="#06b6d4" opacity="0.5"/>
</svg>
