<svg xmlns="http://www.w3.org/2000/svg" viewBox="0 0 1200 630" width="1200" height="630">
  <defs>
    <linearGradient id="bg" x1="0%" y1="0%" x2="100%" y2="100%"><stop offset="0%" style="stop-color:#0d0f1f"/><stop offset="100%" style="stop-color:#0a1a12"/></linearGradient>
    <linearGradient id="accent1" x1="0%" y1="0%" x2="100%" y2="0%"><stop offset="0%" style="stop-color:#22c55e"/><stop offset="100%" style="stop-color:#06b6d4"/></linearGradient>
    <linearGradient id="barTL" x1="0%" y1="0%" x2="0%" y2="100%"><stop offset="0%" style="stop-color:#22c55e"/><stop offset="100%" style="stop-color:#16a34a"/></linearGradient>
    <linearGradient id="barB" x1="0%" y1="0%" x2="0%" y2="100%"><stop offset="0%" style="stop-color:#6366f1"/><stop offset="100%" style="stop-color:#4338ca"/></linearGradient>
    <linearGradient id="barC" x1="0%" y1="0%" x2="0%" y2="100%"><stop offset="0%" style="stop-color:#f59e0b"/><stop offset="100%" style="stop-color:#d97706"/></linearGradient>
    <linearGradient id="barD" x1="0%" y1="0%" x2="0%" y2="100%"><stop offset="0%" style="stop-color:#8b5cf6"/><stop offset="100%" style="stop-color:#7c3aed"/></linearGradient>
    <filter id="glow"><feGaussianBlur stdDeviation="5" result="coloredBlur"/><feMerge><feMergeNode in="coloredBlur"/><feMergeNode in="SourceGraphic"/></feMerge></filter>
    <filter id="glow2"><feGaussianBlur stdDeviation="18" result="coloredBlur"/><feMerge><feMergeNode in="coloredBlur"/><feMergeNode in="SourceGraphic"/></feMerge></filter>
  </defs>
  <rect width="1200" height="630" fill="url(#bg)"/>
  <g opacity="0.05">
    <line x1="0" y1="90" x2="1200" y2="90" stroke="#22c55e" stroke-width="1"/>
    <line x1="0" y1="180" x2="1200" y2="180" stroke="#22c55e" stroke-width="1"/>
    <line x1="0" y1="270" x2="1200" y2="270" stroke="#22c55e" stroke-width="1"/>
    <line x1="0" y1="360" x2="1200" y2="360" stroke="#22c55e" stroke-width="1"/>
    <line x1="0" y1="450" x2="1200" y2="450" stroke="#22c55e" stroke-width="1"/>
    <line x1="0" y1="540" x2="1200" y2="540" stroke="#22c55e" stroke-width="1"/>
    <line x1="150" y1="0" x2="150" y2="630" stroke="#22c55e" stroke-width="1"/>
    <line x1="300" y1="0" x2="300" y2="630" stroke="#22c55e" stroke-width="1"/>
    <line x1="600" y1="0" x2="600" y2="630" stroke="#22c55e" stroke-width="1"/>
    <line x1="900" y1="0" x2="900" y2="630" stroke="#22c55e" stroke-width="1"/>
    <line x1="1050" y1="0" x2="1050" y2="630" stroke="#22c55e" stroke-width="1"/>
  </g>
  <circle cx="600" cy="300" r="300" fill="#22c55e" opacity="0.04" filter="url(#glow2)"/>
  <!-- Chart area -->
  <rect x="100" y="100" width="760" height="440" rx="16" fill="#13162b" stroke="#2a2f55" stroke-width="1.5"/>
  <text x="480" y="138" text-anchor="middle" font-family="system-ui,sans-serif" font-size="16" font-weight="700" fill="white">Accuracy Benchmark — AI Detection (%)</text>
  <!-- Grid lines -->
  <g stroke="#2a2f55" stroke-width="1">
    <line x1="160" y1="160" x2="820" y2="160"/>
    <line x1="160" y1="210" x2="820" y2="210"/>
    <line x1="160" y1="260" x2="820" y2="260"/>
    <line x1="160" y1="310" x2="820" y2="310"/>
    <line x1="160" y1="360" x2="820" y2="360"/>
    <line x1="160" y1="410" x2="820" y2="410"/>
    <line x1="160" y1="460" x2="820" y2="460"/>
  </g>
  <text x="148" y="165" text-anchor="end" font-family="system-ui,sans-serif" font-size="11" fill="#8b8fc0">100</text>
  <text x="148" y="215" text-anchor="end" font-family="system-ui,sans-serif" font-size="11" fill="#8b8fc0">80</text>
  <text x="148" y="265" text-anchor="end" font-family="system-ui,sans-serif" font-size="11" fill="#8b8fc0">60</text>
  <text x="148" y="315" text-anchor="end" font-family="system-ui,sans-serif" font-size="11" fill="#8b8fc0">40</text>
  <text x="148" y="365" text-anchor="end" font-family="system-ui,sans-serif" font-size="11" fill="#8b8fc0">20</text>
  <line x1="160" y1="460" x2="820" y2="460" stroke="#4b5280" stroke-width="2"/>
  <!-- Bar 1: TruthLens 97% -->
  <rect x="195" y="169" width="100" height="291" rx="6" fill="url(#barTL)" filter="url(#glow)"/>
  <rect x="195" y="169" width="100" height="8" rx="4" fill="#4ade80" opacity="0.8"/>
  <text x="245" y="160" text-anchor="middle" font-family="system-ui,sans-serif" font-size="16" font-weight="900" fill="#22c55e">97%</text>
  <text x="245" y="480" text-anchor="middle" font-family="system-ui,sans-serif" font-size="11" fill="white" font-weight="600">TruthLens</text>
  <text x="245" y="494" text-anchor="middle" font-family="system-ui,sans-serif" font-size="10" fill="#22c55e" font-weight="700">Pro</text>
  <!-- Bar 2: 79% -->
  <rect x="345" y="223" width="100" height="237" rx="6" fill="url(#barB)"/>
  <rect x="345" y="223" width="100" height="6" rx="3" fill="#818cf8" opacity="0.8"/>
  <text x="395" y="214" text-anchor="middle" font-family="system-ui,sans-serif" font-size="14" font-weight="700" fill="#6366f1">79%</text>
  <text x="395" y="480" text-anchor="middle" font-family="system-ui,sans-serif" font-size="11" fill="#8b8fc0">Competitor B</text>
  <!-- Bar 3: 71% -->
  <rect x="495" y="247" width="100" height="213" rx="6" fill="url(#barC)"/>
  <rect x="495" y="247" width="100" height="6" rx="3" fill="#fbbf24" opacity="0.8"/>
  <text x="545" y="238" text-anchor="middle" font-family="system-ui,sans-serif" font-size="14" font-weight="700" fill="#f59e0b">71%</text>
  <text x="545" y="480" text-anchor="middle" font-family="system-ui,sans-serif" font-size="11" fill="#8b8fc0">Competitor C</text>
  <!-- Bar 4: 64% -->
  <rect x="645" y="268" width="100" height="192" rx="6" fill="url(#barD)"/>
  <rect x="645" y="268" width="100" height="6" rx="3" fill="#a78bfa" opacity="0.8"/>
  <text x="695" y="259" text-anchor="middle" font-family="system-ui,sans-serif" font-size="14" font-weight="700" fill="#8b5cf6">64%</text>
  <text x="695" y="480" text-anchor="middle" font-family="system-ui,sans-serif" font-size="11" fill="#8b8fc0">Competitor D</text>
  <line x1="160" y1="169" x2="820" y2="169" stroke="#22c55e" stroke-width="1.5" stroke-dasharray="8,6" opacity="0.5"/>
  <!-- Right panel -->
  <rect x="890" y="100" width="290" height="440" rx="16" fill="#13162b" stroke="#2a2f55" stroke-width="1.5"/>
  <rect x="890" y="100" width="290" height="52" rx="16" fill="#1e2247"/>
  <rect x="890" y="134" width="290" height="18" fill="#1e2247"/>
  <text x="1035" y="132" text-anchor="middle" font-family="system-ui,sans-serif" font-size="14" font-weight="700" fill="white">TruthLens Pro</text>
  <rect x="910" y="175" width="250" height="78" rx="10" fill="#0d1320" stroke="#22c55e" stroke-width="1"/>
  <text x="1035" y="200" text-anchor="middle" font-family="system-ui,sans-serif" font-size="38" font-weight="900" fill="#22c55e" filter="url(#glow)">97%</text>
  <text x="1035" y="222" text-anchor="middle" font-family="system-ui,sans-serif" font-size="11" fill="#8b8fc0">Overall Accuracy</text>
  <text x="1035" y="240" text-anchor="middle" font-family="system-ui,sans-serif" font-size="10" fill="#22c55e">#1 Ranked</text>
  <text x="920" y="282" font-family="system-ui,sans-serif" font-size="12" fill="#8b8fc0">AI Text Detection</text>
  <rect x="920" y="290" width="230" height="8" rx="4" fill="#2a2f55"/><rect x="920" y="290" width="220" height="8" rx="4" fill="#22c55e"/>
  <text x="1152" y="299" text-anchor="end" font-family="system-ui,sans-serif" font-size="11" fill="#22c55e" font-weight="700">96%</text>
  <text x="920" y="322" font-family="system-ui,sans-serif" font-size="12" fill="#8b8fc0">Image Deepfake</text>
  <rect x="920" y="330" width="230" height="8" rx="4" fill="#2a2f55"/><rect x="920" y="330" width="214" height="8" rx="4" fill="#22c55e"/>
  <text x="1152" y="339" text-anchor="end" font-family="system-ui,sans-serif" font-size="11" fill="#22c55e" font-weight="700">93%</text>
  <text x="920" y="362" font-family="system-ui,sans-serif" font-size="12" fill="#8b8fc0">False Positive Rate</text>
  <rect x="920" y="370" width="230" height="8" rx="4" fill="#2a2f55"/><rect x="920" y="370" width="18" height="8" rx="4" fill="#22c55e"/>
  <text x="1152" y="379" text-anchor="end" font-family="system-ui,sans-serif" font-size="11" fill="#22c55e" font-weight="700">2.1%</text>
  <text x="920" y="402" font-family="system-ui,sans-serif" font-size="12" fill="#8b8fc0">Response Time</text>
  <rect x="920" y="410" width="230" height="8" rx="4" fill="#2a2f55"/><rect x="920" y="410" width="184" height="8" rx="4" fill="#06b6d4"/>
  <text x="1152" y="419" text-anchor="end" font-family="system-ui,sans-serif" font-size="11" fill="#06b6d4" font-weight="700">0.8s</text>
  <rect x="910" y="434" width="250" height="88" rx="8" fill="#0d1320"/>
  <text x="1035" y="458" text-anchor="middle" font-family="system-ui,sans-serif" font-size="11" fill="#8b8fc0">Tested on 50,000 samples</text>
  <text x="1035" y="476" text-anchor="middle" font-family="system-ui,sans-serif" font-size="11" fill="#8b8fc0">GPT-4 · Claude · Gemini · LLaMA</text>
  <text x="1035" y="494" text-anchor="middle" font-family="system-ui,sans-serif" font-size="11" fill="#8b8fc0">DALL-E · Midjourney · SD</text>
  <text x="1035" y="514" text-anchor="middle" font-family="system-ui,sans-serif" font-size="10" fill="#4b5280">Independent benchmark · March 2026</text>
  <text x="600" y="590" text-anchor="middle" font-family="system-ui,-apple-system,sans-serif" font-size="22" font-weight="700" fill="white" opacity="0.9">Accuracy Comparison · TruthLens Pro</text>
  <rect x="0" y="0" width="1200" height="4" fill="url(#accent1)"/>
</svg>
