<svg xmlns="http://www.w3.org/2000/svg" viewBox="0 0 1200 630" width="1200" height="630">
  <defs>
    <linearGradient id="bg" x1="0%" y1="0%" x2="100%" y2="100%"><stop offset="0%" style="stop-color:#0d0f1f"/><stop offset="100%" style="stop-color:#1a0a2e"/></linearGradient>
    <linearGradient id="accent1" x1="0%" y1="0%" x2="100%" y2="0%"><stop offset="0%" style="stop-color:#ef4444"/><stop offset="100%" style="stop-color:#06b6d4"/></linearGradient>
    <filter id="glow"><feGaussianBlur stdDeviation="4" result="coloredBlur"/><feMerge><feMergeNode in="coloredBlur"/><feMergeNode in="SourceGraphic"/></feMerge></filter>
    <filter id="glow2"><feGaussianBlur stdDeviation="16" result="coloredBlur"/><feMerge><feMergeNode in="coloredBlur"/><feMergeNode in="SourceGraphic"/></feMerge></filter>
  </defs>
  <rect width="1200" height="630" fill="url(#bg)"/>
  <g opacity="0.05">
    <line x1="0" y1="90" x2="1200" y2="90" stroke="#ef4444" stroke-width="1"/>
    <line x1="0" y1="180" x2="1200" y2="180" stroke="#ef4444" stroke-width="1"/>
    <line x1="0" y1="270" x2="1200" y2="270" stroke="#ef4444" stroke-width="1"/>
    <line x1="0" y1="360" x2="1200" y2="360" stroke="#ef4444" stroke-width="1"/>
    <line x1="0" y1="450" x2="1200" y2="450" stroke="#ef4444" stroke-width="1"/>
    <line x1="0" y1="540" x2="1200" y2="540" stroke="#ef4444" stroke-width="1"/>
    <line x1="150" y1="0" x2="150" y2="630" stroke="#ef4444" stroke-width="1"/>
    <line x1="300" y1="0" x2="300" y2="630" stroke="#ef4444" stroke-width="1"/>
    <line x1="600" y1="0" x2="600" y2="630" stroke="#ef4444" stroke-width="1"/>
    <line x1="900" y1="0" x2="900" y2="630" stroke="#ef4444" stroke-width="1"/>
    <line x1="1050" y1="0" x2="1050" y2="630" stroke="#ef4444" stroke-width="1"/>
  </g>
  <circle cx="600" cy="315" r="260" fill="#ef4444" opacity="0.05" filter="url(#glow2)"/>
  <circle cx="200" cy="450" r="100" fill="#6366f1" opacity="0.05" filter="url(#glow2)"/>
  <!-- LEFT: REAL frame -->
  <rect x="80" y="115" width="280" height="340" rx="12" fill="#13162b" stroke="#22c55e" stroke-width="2"/>
  <ellipse cx="220" cy="230" rx="90" ry="100" fill="#2a2f55"/>
  <ellipse cx="193" cy="215" rx="12" ry="14" fill="#1a1040"/><ellipse cx="193" cy="215" rx="6" ry="8" fill="#3b82f6"/>
  <ellipse cx="247" cy="215" rx="12" ry="14" fill="#1a1040"/><ellipse cx="247" cy="215" rx="6" ry="8" fill="#3b82f6"/>
  <path d="M210 235 L220 258 L230 235" fill="none" stroke="#8b8fc0" stroke-width="2" stroke-linecap="round"/>
  <path d="M196 272 Q220 285 244 272" fill="none" stroke="#8b8fc0" stroke-width="2.5" stroke-linecap="round"/>
  <ellipse cx="220" cy="148" rx="90" ry="40" fill="#1e2247"/>
  <rect x="100" y="128" width="70" height="24" rx="12" fill="#22c55e"/>
  <text x="135" y="144" text-anchor="middle" font-family="system-ui,sans-serif" font-size="11" font-weight="700" fill="white" letter-spacing="1">REAL</text>
  <text x="220" y="445" text-anchor="middle" font-family="system-ui,sans-serif" font-size="12" fill="#8b8fc0">Original Photo</text>
  <!-- Arrow -->
  <path d="M390 285 L440 285" stroke="#8b8fc0" stroke-width="2" stroke-dasharray="6,4"/>
  <polygon points="440,278 455,285 440,292" fill="#8b8fc0"/>
  <!-- GAN label -->
  <rect x="455" y="262" width="130" height="46" rx="8" fill="#1e2247" stroke="#6366f1" stroke-width="1"/>
  <text x="520" y="282" text-anchor="middle" font-family="system-ui,sans-serif" font-size="10" fill="#8b8fc0" letter-spacing="1">GAN / DIFFUSION</text>
  <text x="520" y="298" text-anchor="middle" font-family="system-ui,sans-serif" font-size="10" fill="#6366f1">Neural Network</text>
  <path d="M585 285 L635 285" stroke="#8b8fc0" stroke-width="2" stroke-dasharray="6,4"/>
  <polygon points="635,278 650,285 635,292" fill="#ef4444"/>
  <!-- RIGHT: FAKE frame -->
  <rect x="660" y="115" width="280" height="340" rx="12" fill="#13162b" stroke="#ef4444" stroke-width="2"/>
  <ellipse cx="800" cy="230" rx="90" ry="100" fill="#2a2f55"/>
  <rect x="715" y="195" width="170" height="12" fill="#ef4444" opacity="0.15"/>
  <rect x="715" y="248" width="100" height="8" fill="#06b6d4" opacity="0.2"/>
  <rect x="790" y="270" width="90" height="6" fill="#ef4444" opacity="0.15"/>
  <ellipse cx="773" cy="215" rx="12" ry="14" fill="#1a1040"/><ellipse cx="773" cy="213" rx="6" ry="8" fill="#ef4444" opacity="0.8"/>
  <ellipse cx="827" cy="217" rx="12" ry="14" fill="#1a1040"/><ellipse cx="827" cy="215" rx="6" ry="8" fill="#3b82f6" opacity="0.7"/>
  <path d="M790 235 L800 258 L812 233" fill="none" stroke="#8b8fc0" stroke-width="2" stroke-linecap="round"/>
  <path d="M776 274 Q800 290 828 268" fill="none" stroke="#8b8fc0" stroke-width="2.5" stroke-linecap="round"/>
  <ellipse cx="800" cy="148" rx="90" ry="40" fill="#1e2247"/>
  <rect x="670" y="128" width="70" height="24" rx="12" fill="#ef4444"/>
  <text x="705" y="144" text-anchor="middle" font-family="system-ui,sans-serif" font-size="11" font-weight="700" fill="white" letter-spacing="1">FAKE</text>
  <text x="800" y="445" text-anchor="middle" font-family="system-ui,sans-serif" font-size="12" fill="#8b8fc0">AI-Generated Deepfake</text>
  <!-- Corner detection markers -->
  <path d="M668 123 L668 143 L688 143" fill="none" stroke="#ef4444" stroke-width="3"/>
  <path d="M932 123 L932 143 L912 143" fill="none" stroke="#ef4444" stroke-width="3"/>
  <path d="M668 447 L668 427 L688 427" fill="none" stroke="#ef4444" stroke-width="3"/>
  <path d="M932 447 L932 427 L912 427" fill="none" stroke="#ef4444" stroke-width="3"/>
  <!-- Detection panel -->
  <rect x="660" y="480" width="480" height="110" rx="12" fill="#13162b" stroke="#2a2f55" stroke-width="1.5"/>
  <text x="690" y="505" font-family="system-ui,sans-serif" font-size="12" fill="#8b8fc0">Facial Symmetry</text>
  <rect x="690" y="513" width="200" height="6" rx="3" fill="#2a2f55"/>
  <rect x="690" y="513" width="60" height="6" rx="3" fill="#ef4444"/>
  <text x="690" y="538" font-family="system-ui,sans-serif" font-size="12" fill="#8b8fc0">GAN Artifacts</text>
  <rect x="690" y="546" width="200" height="6" rx="3" fill="#2a2f55"/>
  <rect x="690" y="546" width="175" height="6" rx="3" fill="#ef4444"/>
  <text x="690" y="571" font-family="system-ui,sans-serif" font-size="12" fill="#8b8fc0">Metadata Consistency</text>
  <rect x="690" y="579" width="200" height="6" rx="3" fill="#2a2f55"/>
  <rect x="690" y="579" width="30" height="6" rx="3" fill="#22c55e"/>
  <rect x="916" y="500" width="200" height="80" rx="10" fill="#ef4444" opacity="0.15" stroke="#ef4444" stroke-width="1"/>
  <text x="1016" y="535" text-anchor="middle" font-family="system-ui,sans-serif" font-size="28" font-weight="900" fill="#ef4444">97%</text>
  <text x="1016" y="558" text-anchor="middle" font-family="system-ui,sans-serif" font-size="11" fill="#ef4444" opacity="0.8">FAKE CONFIDENCE</text>
  <text x="600" y="590" text-anchor="middle" font-family="system-ui,-apple-system,sans-serif" font-size="22" font-weight="700" fill="white" opacity="0.9">Deepfake Detection · TruthLens Pro</text>
  <rect x="0" y="0" width="1200" height="4" fill="url(#accent1)"/>
</svg>
